#!OML:ASF I:\Actors\actors\Patient Classification 1\Patient 1\Session 1\Subject1.ASF
:FULLY-SPECIFIED
:DEGREES
657
root 0.773093 17.6556 8.36571 6.01545 -0.489869 -11.3811
lowerback 3.8951 -0.138842 11.813
upperback -7.76841 0.899637 0.0891347
thorax -10.5106 -0.513797 -6.64186
lowerneck -12.2058 -4.92817 -2.29908
upperneck 34.0903 -10.1693 9.26534
head 14.414 -3.54467 2.54379
rclavicle -5.56597e-015 -7.95139e-016
rhumerus -36.6541 69.2921 -137.158
rradius 121.855
rwrist 1.16661
rhand -2.22534 -49.7021
rfingers 7.12502
rthumb 23.4572 -78.2921
lclavicle -5.56597e-015 -7.95139e-016
lhumerus 60.1416 -79.5763 31.5069
lradius 107.182
lwrist 53.287
lhand 27.2456 5.96248
lfingers 7.12502
lthumb 51.2144 26.5234
rfemur -6.61351 19.3219 29.0668
rtibia 11.5555
rfoot -13.6908 -16.0793
rtoes -3.53116
lfemur 1.8785 -30.6763 -5.55066
ltibia -0.696434
lfoot -12.434 39.2086
ltoes -3.32832
658
root 0.771013 17.6558 8.37167 6.00538 -0.402497 -11.3642
lowerback 3.62375 -0.0594249 11.5847
upperback -7.59556 0.951966 0.273951
thorax -10.1323 -0.430037 -6.31151
lowerneck -12.2852 -5.04123 -2.66627
upperneck 33.9219 -10.2134 9.26675
head 14.378 -3.61181 2.59454
rclavicle 2.18663e-015 -2.38542e-014
rhumerus -36.4547 69.6142 -136.575
rradius 122.11
rwrist 1.31203
rhand -2.93469 -50.0331
rfingers 7.12502
rthumb 22.7766 -78.7085
lclavicle 2.18663e-015 -2.38542e-014
lhumerus 59.7006 -79.4801 32.1531
lradius 107.192
lwrist 53.0451
lhand 27.4002 5.7834
lfingers 7.12502
lthumb 51.3552 26.2644
rfemur -6.60885 19.3207 29.0726
rtibia 11.6149
rfoot -13.6793 -16.1696
rtoes -3.81139
lfemur 1.83255 -30.6791 -5.55422
ltibia -0.618864
lfoot -12.4226 39.1321
ltoes -3.43482
659
root 0.768366 17.658 8.37593 6.01626 -0.29923 -11.3068
lowerback 3.37505 0.0446681 11.2942
upperback -7.42489 1.03635 0.456973
thorax -9.76597 -0.328743 -5.95351
lowerneck -12.3943 -5.11185 -2.78828
upperneck 33.8397 -10.2436 9.1936
head 14.3682 -3.64595 2.57606
rclavicle 1.05356e-014 -2.38542e-014
rhumerus -35.9966 69.9206 -135.601
rradius 122.397
rwrist 1.31704
rhand -3.46097 -50.4896
rfingers 7.12502
rthumb 22.2715 -79.2263
lclavicle 1.05356e-014 -2.38542e-014
lhumerus 58.8156 -79.4495 33.3067
lradius 107.271
lwrist 52.7515
lhand 27.6259 5.73771
lfingers 7.12502
lthumb 51.5604 26.1009
rfemur -6.60889 19.3616 29.0221
rtibia 11.6012
rfoot -13.6187 -16.314
rtoes -3.91225
lfemur 1.72018 -30.7872 -5.6031
ltibia -0.466427
lfoot -12.528 39.1116
ltoes -3.35952
660
root 0.760828 17.6664 8.38161 6.1702 -0.233034 -10.7812
lowerback 2.91499 0.150089 10.3738
upperback -7.25355 1.04068 0.564133
thorax -9.27994 -0.219615 -5.31498
lowerneck -12.6503 -5.20827 -3.09066
upperneck 33.8876 -10.2985 9.16753
head 14.4689 -3.6987 2.60451
rclavicle -1.2921e-014 3.02153e-014
rhumerus -35.4448 70.372 -134.466
rradius 122.715
rwrist 1.28019
rhand -3.77758 -51.0275
rfingers 7.12502
rthumb 21.9675 -79.8001
lclavicle -1.2921e-014 3.02153e-014
lhumerus 57.1891 -79.3638 35.2123
lradius 107.346
lwrist 52.3476
lhand 28.1718 5.74096
lfingers 7.12502
lthumb 52.056 25.8133
rfemur -6.80902 19.4893 28.3599
rtibia 11.6208
rfoot -13.7404 -16.498
rtoes -3.41289
lfemur 1.40001 -30.9391 -6.08978
ltibia -0.272419
lfoot -12.6635 39.1685
ltoes -3.35689
661
root 0.749768 17.6809 8.38903 6.45681 -0.24019 -9.829
lowerback 2.31168 0.238118 8.94653
upperback -7.12937 0.975594 0.556929
thorax -8.77209 -0.12093 -4.50931
lowerneck -12.7668 -5.23927 -3.16833
upperneck 33.8321 -10.2612 9.02963
head 14.4592 -3.70609 2.56322
rclavicle -1.78906e-015 1.59028e-015
rhumerus -34.8238 70.8307 -133.368
rradius 123.006
rwrist 1.10612
rhand -4.05824 -51.3606
rfingers 7.12502
rthumb 21.698 -80.1646
lclavicle -1.78906e-015 1.59028e-015
lhumerus 55.2459 -79.2003 37.3423
lradius 107.411
lwrist 51.7637
lhand 28.9947 5.54752
lfingers 7.12502
lthumb 52.8009 25.1651
rfemur -7.22157 19.6737 27.1422
rtibia 11.7289
rfoot -13.8803 -16.7321
rtoes -3.08629
lfemur 0.924009 -31.1294 -6.98673
ltibia -0.0750532
lfoot -12.8143 39.2926
ltoes -3.15173
662
root 0.744673 17.691 8.39385 6.60892 -0.161499 -9.34203
lowerback 1.9081 0.267827 8.19805
upperback -6.96963 0.91799 0.600024
thorax -8.35654 -0.0735075 -4.034
lowerneck -12.8389 -5.23439 -3.1047
upperneck 33.6701 -10.1758 8.83806
head 14.3734 -3.68678 2.48152
rclavicle 1.0635e-014 -6.36111e-015
rhumerus -33.7995 71.1987 -132.034
rradius 123.265
rwrist 0.837089
rhand -4.03972 -51.5367
rfingers 7.12502
rthumb 21.7158 -80.3387
lclavicle 1.0635e-014 -6.36111e-015
lhumerus 53.7384 -78.9297 38.9221
lradius 107.573
lwrist 51.1236
lhand 29.8465 5.41297
lfingers 7.12502
lthumb 53.5689 24.5383
rfemur -7.44749 19.7036 26.5242
rtibia 11.8177
rfoot -13.9362 -16.9033
rtoes -3.09596
lfemur 0.610958 -31.2054 -7.41483
ltibia 0.068271
lfoot -12.8762 39.2562
ltoes -2.84933
